<svg width="110" height="110" viewBox="0 0 110 110" fill="none" xmlns="http://www.w3.org/2000/svg">
<path d="M51.7465 4.5491C53.3419 2.31833 56.6581 2.31833 58.2535 4.54909L65.5708 14.7801C66.5917 16.2075 68.4238 16.8028 70.0887 16.2481L82.0221 12.272C84.6241 11.405 87.3069 13.3542 87.2865 16.0967L87.1926 28.6748C87.1795 30.4297 88.3118 31.9881 89.9848 32.518L101.976 36.3155C104.591 37.1435 105.616 40.2974 103.987 42.5041L96.5179 52.6248C95.4758 54.0368 95.4758 55.9632 96.5179 57.3752L103.987 67.4959C105.616 69.7026 104.591 72.8565 101.976 73.6845L89.9848 77.482C88.3118 78.0119 87.1795 79.5703 87.1926 81.3252L87.2865 93.9033C87.3069 96.6458 84.6241 98.595 82.0221 97.728L70.0887 93.7519C68.4238 93.1972 66.5917 93.7925 65.5708 95.2199L58.2535 105.451C56.6581 107.682 53.3419 107.682 51.7465 105.451L44.4292 95.2199C43.4083 93.7925 41.5762 93.1972 39.9113 93.7519L27.9779 97.728C25.3759 98.595 22.6931 96.6458 22.7135 93.9033L22.8074 81.3252C22.8205 79.5703 21.6882 78.0119 20.0152 77.482L8.02374 73.6845C5.40913 72.8565 4.38438 69.7026 6.01294 67.4959L13.4821 57.3752C14.5242 55.9632 14.5242 54.0368 13.4821 52.6248L6.01295 42.5041C4.38438 40.2974 5.40913 37.1435 8.02373 36.3155L20.0152 32.518C21.6882 31.9881 22.8205 30.4297 22.8074 28.6748L22.7135 16.0967C22.6931 13.3542 25.3759 11.405 27.9779 12.272L39.9113 16.2481C41.5762 16.8028 43.4083 16.2075 44.4292 14.7801L51.7465 4.5491Z" fill="#D65A1F" stroke="#D65A1F" stroke-width="1.5"/>
<path d="M72.5 44.0918L48.4373 69.0918L37.5 60.0012" stroke="white" stroke-width="3" stroke-linecap="round" stroke-linejoin="round"/>
</svg>
